<mxfile host="app.diagrams.net" modified="2024-02-05T08:22:28.056Z" agent="Mozilla/5.0 (Windows NT 10.0; Win64; x64) AppleWebKit/537.36 (KHTML, like Gecko) Chrome/118.0.0.0 Safari/537.36 Edg/118.0.0.0" etag="5XG0eWq913rkNwIMM61m" version="23.1.1" type="device">
  <diagram id="QJjx0-fPxzvcmYibJWj1" name="Page-1">
    <mxGraphModel dx="1154" dy="606" grid="1" gridSize="10" guides="1" tooltips="1" connect="1" arrows="1" fold="1" page="1" pageScale="1" pageWidth="827" pageHeight="583" math="0" shadow="0">
      <root>
        <mxCell id="0" />
        <mxCell id="1" parent="0" />
        <mxCell id="4f-DMQIj-ya-iA7LCkDa-1" value="" style="shape=cube;whiteSpace=wrap;html=1;boundedLbl=1;backgroundOutline=1;darkOpacity=0.05;darkOpacity2=0.1;size=110;direction=east;flipH=1;fillColor=#ffe6cc;strokeColor=#d79b00;" parent="1" vertex="1">
          <mxGeometry x="71" y="96" width="120" height="420" as="geometry" />
        </mxCell>
        <mxCell id="obZFBqdr_EI888Jz33jm-2" value="" style="shape=cube;whiteSpace=wrap;html=1;boundedLbl=1;backgroundOutline=1;darkOpacity=0.05;darkOpacity2=0.1;size=110;direction=east;flipH=1;fillColor=#F8CECC;strokeColor=#d79b00;" vertex="1" parent="1">
          <mxGeometry x="88" y="96" width="120" height="420" as="geometry" />
        </mxCell>
        <mxCell id="4f-DMQIj-ya-iA7LCkDa-3" value="" style="shape=cube;whiteSpace=wrap;html=1;boundedLbl=1;backgroundOutline=1;darkOpacity=0.05;darkOpacity2=0.1;size=70;direction=east;flipH=1;fillColor=#f8cecc;strokeColor=#b85450;" parent="1" vertex="1">
          <mxGeometry x="121" y="186" width="80" height="240" as="geometry" />
        </mxCell>
        <mxCell id="4f-DMQIj-ya-iA7LCkDa-4" value="" style="shape=cube;whiteSpace=wrap;html=1;boundedLbl=1;backgroundOutline=1;darkOpacity=0.05;darkOpacity2=0.1;size=70;direction=east;flipH=1;fillColor=#ffe6cc;strokeColor=#d79b00;" parent="1" vertex="1">
          <mxGeometry x="135" y="186" width="80" height="240" as="geometry" />
        </mxCell>
        <mxCell id="4f-DMQIj-ya-iA7LCkDa-6" value="" style="shape=cube;whiteSpace=wrap;html=1;boundedLbl=1;backgroundOutline=1;darkOpacity=0.05;darkOpacity2=0.1;size=40;direction=east;flipH=1;fillColor=#f8cecc;strokeColor=#b85450;" parent="1" vertex="1">
          <mxGeometry x="158" y="248.26" width="50" height="133.75" as="geometry" />
        </mxCell>
        <mxCell id="4f-DMQIj-ya-iA7LCkDa-7" value="" style="shape=cube;whiteSpace=wrap;html=1;boundedLbl=1;backgroundOutline=1;darkOpacity=0.05;darkOpacity2=0.1;size=40;direction=east;flipH=1;fillColor=#ffe6cc;strokeColor=#d79b00;" parent="1" vertex="1">
          <mxGeometry x="175" y="248.26" width="50" height="133.75" as="geometry" />
        </mxCell>
        <mxCell id="4f-DMQIj-ya-iA7LCkDa-23" value="" style="shape=cube;whiteSpace=wrap;html=1;boundedLbl=1;backgroundOutline=1;darkOpacity=0.05;darkOpacity2=0.1;size=7;direction=east;flipH=1;fillColor=#ffe6cc;strokeColor=#d79b00;" parent="1" vertex="1">
          <mxGeometry x="360" y="406" width="30" height="20" as="geometry" />
        </mxCell>
        <mxCell id="4f-DMQIj-ya-iA7LCkDa-24" value="" style="shape=cube;whiteSpace=wrap;html=1;boundedLbl=1;backgroundOutline=1;darkOpacity=0.05;darkOpacity2=0.1;size=7;direction=east;flipH=1;fillColor=#f8cecc;strokeColor=#b85450;" parent="1" vertex="1">
          <mxGeometry x="360" y="436" width="30" height="20" as="geometry" />
        </mxCell>
        <mxCell id="4f-DMQIj-ya-iA7LCkDa-26" value="" style="shape=cube;whiteSpace=wrap;html=1;boundedLbl=1;backgroundOutline=1;darkOpacity=0.05;darkOpacity2=0.1;size=7;direction=east;flipH=1;fillColor=#dae8fc;strokeColor=#6c8ebf;" parent="1" vertex="1">
          <mxGeometry x="360" y="466" width="30" height="20" as="geometry" />
        </mxCell>
        <mxCell id="4f-DMQIj-ya-iA7LCkDa-28" value="" style="shape=cube;whiteSpace=wrap;html=1;boundedLbl=1;backgroundOutline=1;darkOpacity=0.05;darkOpacity2=0.1;size=7;direction=east;flipH=1;fillColor=#d5e8d4;strokeColor=#82b366;" parent="1" vertex="1">
          <mxGeometry x="360" y="496" width="30" height="20" as="geometry" />
        </mxCell>
        <mxCell id="4f-DMQIj-ya-iA7LCkDa-29" value="&lt;b&gt;conv1&lt;/b&gt;" style="text;html=1;strokeColor=none;fillColor=none;align=center;verticalAlign=middle;whiteSpace=wrap;rounded=0;" parent="1" vertex="1">
          <mxGeometry x="180" y="60" width="40" height="30" as="geometry" />
        </mxCell>
        <mxCell id="4f-DMQIj-ya-iA7LCkDa-31" value="&lt;b&gt;conv2&lt;/b&gt;" style="text;html=1;strokeColor=none;fillColor=none;align=center;verticalAlign=middle;whiteSpace=wrap;rounded=0;" parent="1" vertex="1">
          <mxGeometry x="185" y="150" width="40" height="30" as="geometry" />
        </mxCell>
        <mxCell id="4f-DMQIj-ya-iA7LCkDa-32" value="&lt;b&gt;conv3&lt;/b&gt;" style="text;html=1;strokeColor=none;fillColor=none;align=center;verticalAlign=middle;whiteSpace=wrap;rounded=0;" parent="1" vertex="1">
          <mxGeometry x="201" y="218.26" width="40" height="30" as="geometry" />
        </mxCell>
        <mxCell id="4f-DMQIj-ya-iA7LCkDa-38" value="28 x 28 x 256" style="text;html=1;strokeColor=none;fillColor=none;align=center;verticalAlign=middle;whiteSpace=wrap;rounded=0;" parent="1" vertex="1">
          <mxGeometry x="37" y="516" width="99" height="30" as="geometry" />
        </mxCell>
        <mxCell id="4f-DMQIj-ya-iA7LCkDa-39" value="14 x 14 x 256" style="text;html=1;strokeColor=none;fillColor=none;align=center;verticalAlign=middle;whiteSpace=wrap;rounded=0;" parent="1" vertex="1">
          <mxGeometry x="92" y="426" width="99" height="30" as="geometry" />
        </mxCell>
        <mxCell id="4f-DMQIj-ya-iA7LCkDa-48" value="1 x 1 x 64" style="text;html=1;strokeColor=none;fillColor=none;align=center;verticalAlign=middle;whiteSpace=wrap;rounded=0;" parent="1" vertex="1">
          <mxGeometry x="211" y="326" width="99" height="24" as="geometry" />
        </mxCell>
        <mxCell id="4f-DMQIj-ya-iA7LCkDa-50" value="convolutional + ReLU" style="text;html=1;strokeColor=none;fillColor=none;align=left;verticalAlign=middle;whiteSpace=wrap;rounded=0;fontStyle=1" parent="1" vertex="1">
          <mxGeometry x="401" y="403.06" width="138" height="23.88" as="geometry" />
        </mxCell>
        <mxCell id="4f-DMQIj-ya-iA7LCkDa-51" value="max pooling" style="text;html=1;strokeColor=none;fillColor=none;align=left;verticalAlign=middle;whiteSpace=wrap;rounded=0;fontStyle=1" parent="1" vertex="1">
          <mxGeometry x="401" y="433.06" width="138" height="23.88" as="geometry" />
        </mxCell>
        <mxCell id="4f-DMQIj-ya-iA7LCkDa-52" value="fully connected + ReLU" style="text;html=1;strokeColor=none;fillColor=none;align=left;verticalAlign=middle;whiteSpace=wrap;rounded=0;fontStyle=1" parent="1" vertex="1">
          <mxGeometry x="401" y="464.12" width="138" height="23.88" as="geometry" />
        </mxCell>
        <mxCell id="4f-DMQIj-ya-iA7LCkDa-53" value="softmax" style="text;html=1;strokeColor=none;fillColor=none;align=left;verticalAlign=middle;whiteSpace=wrap;rounded=0;fontStyle=1" parent="1" vertex="1">
          <mxGeometry x="400" y="492.12" width="138" height="23.88" as="geometry" />
        </mxCell>
        <mxCell id="obZFBqdr_EI888Jz33jm-6" value="" style="shape=cube;whiteSpace=wrap;html=1;boundedLbl=1;backgroundOutline=1;darkOpacity=0.05;darkOpacity2=0.1;size=3;direction=east;flipH=1;fillColor=#dae8fc;strokeColor=#6c8ebf;" vertex="1" parent="1">
          <mxGeometry x="208" y="318.57" width="102" height="8" as="geometry" />
        </mxCell>
        <mxCell id="obZFBqdr_EI888Jz33jm-8" value="" style="shape=cube;whiteSpace=wrap;html=1;boundedLbl=1;backgroundOutline=1;darkOpacity=0.05;darkOpacity2=0.1;size=3;direction=east;flipH=1;fillColor=#d5e8d4;strokeColor=#82b366;" vertex="1" parent="1">
          <mxGeometry x="310" y="318.57" width="50" height="8" as="geometry" />
        </mxCell>
        <mxCell id="obZFBqdr_EI888Jz33jm-9" value="1 x 1 x 10" style="text;html=1;strokeColor=none;fillColor=none;align=center;verticalAlign=middle;whiteSpace=wrap;rounded=0;" vertex="1" parent="1">
          <mxGeometry x="285.5" y="326" width="99" height="24" as="geometry" />
        </mxCell>
        <mxCell id="obZFBqdr_EI888Jz33jm-10" value="7 x 7 x 32" style="text;html=1;strokeColor=none;fillColor=none;align=center;verticalAlign=middle;whiteSpace=wrap;rounded=0;" vertex="1" parent="1">
          <mxGeometry x="126" y="386" width="99" height="30" as="geometry" />
        </mxCell>
      </root>
    </mxGraphModel>
  </diagram>
</mxfile>
